<svg width="96" height="97" viewBox="0 0 96 97" fill="none" xmlns="http://www.w3.org/2000/svg">
	<g clip-path="url(#clip0_494_6194)">
		<path fill-rule="evenodd" clip-rule="evenodd" d="M44.401 7.10647C35.9545 4.84322 27.2725 9.85578 25.0092 18.3023L23.8797 22.5176C16.2701 21.7191 8.99592 26.5457 6.95277 34.1708L3.50185 47.0498C1.2386 55.4964 6.25116 64.1784 14.6977 66.4416L40.4557 73.3435C48.9023 75.6067 57.5843 70.5942 59.8475 62.1476L63.2984 49.2686C65.3414 41.644 61.4558 33.8275 54.4673 30.7137L55.5969 26.4983C57.8601 18.0517 52.8476 9.36971 44.401 7.10647ZM49.6885 29.23L50.7672 25.2042C52.3158 19.4249 48.8861 13.4846 43.1069 11.9361C37.3277 10.3876 31.3874 13.8172 29.8388 19.5964L28.7601 23.6222L49.6885 29.23ZM31.4962 54.2895C30.5396 54.8418 29.3164 54.5141 28.7641 53.5575L25.2286 47.4338C24.6763 46.4772 25.0041 45.254 25.9606 44.7017C26.9172 44.1494 28.1404 44.4772 28.6927 45.4338L31.2282 49.8254L41.7436 43.7544C42.7002 43.2021 43.9234 43.5298 44.4757 44.4864C45.028 45.443 44.7002 46.6662 43.7436 47.2185L31.4962 54.2895Z" fill="#2B3F6C" fill-opacity="0.8" />
		<path fill-rule="evenodd" clip-rule="evenodd" d="M44.401 7.10647C35.9545 4.84322 27.2725 9.85578 25.0092 18.3023L23.8797 22.5176C16.2701 21.7191 8.99592 26.5457 6.95277 34.1708L3.50185 47.0498C1.2386 55.4964 6.25116 64.1784 14.6977 66.4416L40.4557 73.3435C48.9023 75.6067 57.5843 70.5942 59.8475 62.1476L63.2984 49.2686C65.3414 41.644 61.4558 33.8275 54.4673 30.7137L55.5969 26.4983C57.8601 18.0517 52.8476 9.36971 44.401 7.10647ZM49.6885 29.23L50.7672 25.2042C52.3158 19.4249 48.8861 13.4846 43.1069 11.9361C37.3277 10.3876 31.3874 13.8172 29.8388 19.5964L28.7601 23.6222L49.6885 29.23ZM31.4962 54.2895C30.5396 54.8418 29.3164 54.5141 28.7641 53.5575L25.2286 47.4338C24.6763 46.4772 25.0041 45.254 25.9606 44.7017C26.9172 44.1494 28.1404 44.4772 28.6927 45.4338L31.2282 49.8254L41.7436 43.7544C42.7002 43.2021 43.9234 43.5298 44.4757 44.4864C45.028 45.443 44.7002 46.6662 43.7436 47.2185L31.4962 54.2895Z" fill="url(#paint0_linear_494_6194)" />
		<path fill-rule="evenodd" clip-rule="evenodd" d="M44.401 7.10647C35.9545 4.84322 27.2725 9.85578 25.0092 18.3023L23.8797 22.5176C16.2701 21.7191 8.99592 26.5457 6.95277 34.1708L3.50185 47.0498C1.2386 55.4964 6.25116 64.1784 14.6977 66.4416L40.4557 73.3435C48.9023 75.6067 57.5843 70.5942 59.8475 62.1476L63.2984 49.2686C65.3414 41.644 61.4558 33.8275 54.4673 30.7137L55.5969 26.4983C57.8601 18.0517 52.8476 9.36971 44.401 7.10647ZM49.6885 29.23L50.7672 25.2042C52.3158 19.4249 48.8861 13.4846 43.1069 11.9361C37.3277 10.3876 31.3874 13.8172 29.8388 19.5964L28.7601 23.6222L49.6885 29.23ZM31.4962 54.2895C30.5396 54.8418 29.3164 54.5141 28.7641 53.5575L25.2286 47.4338C24.6763 46.4772 25.0041 45.254 25.9606 44.7017C26.9172 44.1494 28.1404 44.4772 28.6927 45.4338L31.2282 49.8254L41.7436 43.7544C42.7002 43.2021 43.9234 43.5298 44.4757 44.4864C45.028 45.443 44.7002 46.6662 43.7436 47.2185L31.4962 54.2895Z" fill="url(#paint1_radial_494_6194)" fill-opacity="0.4" />
		<path d="M67.2806 44.3891L65.5551 37.9496C63.6492 30.8367 56.3381 26.6156 49.2252 28.5215V28.5215C42.1123 30.4274 37.8912 37.7385 39.7971 44.8514L41.5226 51.2909" stroke="url(#paint2_linear_494_6194)" stroke-width="5" />
		<g filter="url(#filter0_b_494_6194)">
			<path fill-rule="evenodd" clip-rule="evenodd" d="M29.6796 68.2679C27.4164 59.8214 32.4289 51.1394 40.8755 48.8762L66.6335 41.9743C75.0801 39.7111 83.7621 44.7236 86.0253 53.1702L89.4762 66.0492C91.7395 74.4957 86.7269 83.1777 78.2804 85.441L52.5223 92.3428C44.0758 94.6061 35.3938 89.5935 33.1306 81.147L29.6796 68.2679ZM58.0121 74.5846C59.2079 75.275 60.7368 74.8653 61.4272 73.6696L68.4983 61.4221C69.1886 60.2264 68.7789 58.6974 67.5832 58.007C66.3875 57.3167 64.8585 57.7264 64.1682 58.9221L58.3471 69.0045L54.3884 66.719C53.1927 66.0286 51.6637 66.4383 50.9734 67.634C50.283 68.8298 50.6927 70.3587 51.8884 71.0491L58.0121 74.5846Z" fill="#2396F3" fill-opacity="0.24" />
		</g>
		<path d="M53.1376 68.8844L59.2613 72.4199L66.3324 60.1725" stroke="url(#paint3_linear_494_6194)" stroke-width="5" stroke-linecap="round" stroke-linejoin="round" />
	</g>
	<defs>
		<filter id="filter0_b_494_6194" x="5.13623" y="17.4309" width="108.883" height="99.4553" filterUnits="userSpaceOnUse" color-interpolation-filters="sRGB">
			<feFlood flood-opacity="0" result="BackgroundImageFix" />
			<feGaussianBlur in="BackgroundImageFix" stdDeviation="12" />
			<feComposite in2="SourceAlpha" operator="in" result="effect1_backgroundBlur_494_6194" />
			<feBlend mode="normal" in="SourceGraphic" in2="effect1_backgroundBlur_494_6194" result="shape" />
		</filter>
		<linearGradient id="paint0_linear_494_6194" x1="11.0516" y1="18.8777" x2="38.4913" y2="84.6432" gradientUnits="userSpaceOnUse">
			<stop stop-color="#036CC1" />
			<stop offset="1" stop-color="#0A66B0" />
		</linearGradient>
		<radialGradient id="paint1_radial_494_6194" cx="0" cy="0" r="1" gradientUnits="userSpaceOnUse" gradientTransform="translate(24.0009 22.5007) rotate(85.685) scale(47.5265 42.6513)">
			<stop stop-color="white" stop-opacity="0" />
			<stop offset="1" stop-color="white" />
		</radialGradient>
		<linearGradient id="paint2_linear_494_6194" x1="65.94" y1="25.3122" x2="37.671" y2="46.8875" gradientUnits="userSpaceOnUse">
			<stop stop-color="white" stop-opacity="0.8" />
			<stop offset="1" stop-color="white" />
		</linearGradient>
		<linearGradient id="paint3_linear_494_6194" x1="52.7347" y1="67.6506" x2="62.1272" y2="71.3002" gradientUnits="userSpaceOnUse">
			<stop stop-color="white" stop-opacity="0.8" />
			<stop offset="1" stop-color="white" />
		</linearGradient>
		<clipPath id="clip0_494_6194">
			<rect width="96" height="96" fill="white" transform="translate(0 0.5)" />
		</clipPath>
	</defs>
</svg>
