<svg width="49" height="48" viewBox="0 0 49 48" fill="none" xmlns="http://www.w3.org/2000/svg">
<rect x="0.5" width="48" height="48" rx="16" fill="url(#paint0_linear_494_4934)"/>
<rect x="1" y="0.5" width="47" height="47" rx="15.5" stroke="#525280" stroke-opacity="0.09"/>
<path d="M16.3692 24.567C16.3692 24.072 16.4115 23.5835 16.4962 23.1015C16.5809 22.6195 16.7209 22.1505 16.9164 21.6945C17.242 20.991 17.6622 20.3918 18.1767 19.8967C18.6913 19.4017 19.3199 19.0304 20.0625 18.7829C20.323 18.6917 20.5868 18.6266 20.8539 18.5875C21.1209 18.5484 21.3913 18.5419 21.6648 18.5679C21.8993 18.581 22.1338 18.6168 22.3683 18.6754C22.6028 18.734 22.8308 18.8024 23.0522 18.8806C23.2867 18.9588 23.5147 19.0369 23.7362 19.1151C23.9576 19.1933 24.1791 19.2714 24.4006 19.3496C24.596 19.4147 24.7816 19.4343 24.9575 19.4082C25.1334 19.3822 25.3125 19.3366 25.4949 19.2714C25.7684 19.1802 26.042 19.0858 26.3156 18.9881C26.5892 18.8904 26.8627 18.8024 27.1363 18.7243C27.3578 18.6591 27.5825 18.6038 27.8105 18.5582C28.0385 18.5126 28.2632 18.4963 28.4847 18.5093C29.2012 18.5224 29.8688 18.6461 30.4876 18.8806C31.1064 19.1151 31.6698 19.4994 32.1779 20.0335C32.23 20.0987 32.2821 20.1638 32.3342 20.2289C32.3864 20.2941 32.4385 20.3592 32.4906 20.4243C32.5166 20.4634 32.5264 20.4895 32.5199 20.5025C32.5134 20.5155 32.4906 20.5351 32.4515 20.5611C32.204 20.7175 31.9662 20.8933 31.7382 21.0887C31.5103 21.2842 31.3051 21.5056 31.1227 21.7531C30.8752 22.0788 30.6895 22.424 30.5658 22.7888C30.442 23.1536 30.3671 23.5379 30.3411 23.9417C30.315 24.3065 30.3248 24.6615 30.3704 25.0067C30.416 25.3519 30.5104 25.6939 30.6537 26.0326C30.8491 26.4886 31.1064 26.8892 31.4256 27.2344C31.7448 27.5796 32.1128 27.8825 32.5297 28.1431C32.6078 28.1952 32.6827 28.2408 32.7544 28.2799C32.826 28.3189 32.9009 28.3515 32.9791 28.3776C33.0182 28.3906 33.041 28.4069 33.0475 28.4264C33.054 28.4459 33.0507 28.4753 33.0377 28.5143C32.8423 29.1006 32.6013 29.6608 32.3147 30.1949C32.0281 30.729 31.6959 31.2436 31.3181 31.7386C31.1488 31.9731 30.9696 32.2011 30.7807 32.4226C30.5918 32.644 30.3866 32.8525 30.1652 33.0479C29.9567 33.2172 29.7385 33.3605 29.5106 33.4778C29.2826 33.595 29.0318 33.6732 28.7582 33.7123C28.5758 33.7383 28.3935 33.7383 28.2111 33.7123C28.0287 33.6862 27.8463 33.6536 27.6639 33.6146C27.4685 33.5624 27.2796 33.4973 27.0972 33.4191C26.9149 33.341 26.726 33.2693 26.5305 33.2042C26.0225 33.0218 25.5177 32.9404 25.0161 32.9599C24.5146 32.9795 24.0098 33.0804 23.5017 33.2628C23.2802 33.354 23.0588 33.4387 22.8373 33.5169C22.6158 33.595 22.3944 33.6602 22.1729 33.7123C21.8472 33.7774 21.5378 33.7741 21.2447 33.7025C20.9516 33.6308 20.6747 33.4973 20.4142 33.3019C20.1667 33.1325 19.942 32.9404 19.74 32.7254C19.5381 32.5105 19.3394 32.2858 19.144 32.0513C18.5969 31.3739 18.1246 30.6508 17.7273 29.8822C17.33 29.1136 17.0141 28.2994 16.7796 27.4396C16.6493 26.9706 16.5483 26.4984 16.4767 26.0229C16.405 25.5474 16.3692 25.0621 16.3692 24.567ZM28.8755 14.1712C28.8755 14.7053 28.7778 15.2036 28.5824 15.6661C28.3869 16.1286 28.1199 16.5617 27.7812 16.9656C27.5727 17.2131 27.3448 17.4411 27.0972 17.6495C26.8497 17.858 26.5761 18.0338 26.2765 18.1771C26.055 18.2813 25.8238 18.3595 25.5828 18.4116C25.3418 18.4637 25.091 18.4833 24.8305 18.4702C24.7914 18.4702 24.7653 18.467 24.7523 18.4605C24.7393 18.454 24.7328 18.4312 24.7328 18.3921C24.7067 18.0794 24.7197 17.7733 24.7719 17.4736C24.824 17.174 24.9086 16.8809 25.0259 16.5943C25.3516 15.8517 25.7847 15.2525 26.3254 14.7965C26.866 14.3406 27.5206 14.0149 28.2892 13.8195C28.3674 13.7934 28.4488 13.7739 28.5335 13.7608C28.6182 13.7478 28.6996 13.7413 28.7778 13.7413C28.8038 13.7413 28.8266 13.7446 28.8462 13.7511C28.8657 13.7576 28.8755 13.7804 28.8755 13.8195C28.8755 13.8716 28.8755 13.9269 28.8755 13.9856C28.8755 14.0442 28.8755 14.1061 28.8755 14.1712Z" fill="white"/>
<defs>
<linearGradient id="paint0_linear_494_4934" x1="24.5" y1="0" x2="24.5" y2="48" gradientUnits="userSpaceOnUse">
<stop stop-color="#8197AD"/>
<stop offset="1" stop-color="#3B84CD"/>
</linearGradient>
</defs>
</svg>
