<svg width="49" height="48" viewBox="0 0 49 48" fill="none" xmlns="http://www.w3.org/2000/svg">
<rect x="0.547485" width="48" height="48" rx="16" fill="url(#paint0_linear_494_4941)"/>
<rect x="1.04749" y="0.5" width="47" height="47" rx="15.5" stroke="#525280" stroke-opacity="0.09"/>
<g clipPath="url(#clip0_494_4941)">
<path d="M33.7917 24.1771C33.7917 23.5341 33.7396 22.8877 33.6283 22.2551H24.7067V25.8975H29.8157C29.6037 27.0722 28.9225 28.1114 27.925 28.7717V31.1351H30.973C32.7629 29.4877 33.7917 27.0548 33.7917 24.1771Z" fill="white"/>
<path d="M24.706 33.4176C27.257 33.4176 29.4084 32.58 30.9758 31.1342L27.9278 28.7708C27.0798 29.3478 25.985 29.6745 24.7095 29.6745C22.2418 29.6745 20.1496 28.0097 19.3989 25.7715H16.2535V28.2078C17.8592 31.4018 21.1297 33.4176 24.706 33.4176Z" fill="white"/>
<path d="M19.3957 25.771C18.9995 24.5962 18.9995 23.3242 19.3957 22.1495V19.7131H16.2538C14.9123 22.3858 14.9123 25.5346 16.2538 28.2073L19.3957 25.771Z" fill="white"/>
<path d="M24.706 18.2438C26.0545 18.2229 27.3578 18.7303 28.3344 19.6618L31.0349 16.9613C29.325 15.3556 27.0554 14.4728 24.706 14.5006C21.1297 14.5006 17.8592 16.5164 16.2535 19.7139L19.3954 22.1502C20.1426 19.9085 22.2384 18.2438 24.706 18.2438Z" fill="white"/>
</g>
<defs>
<linearGradient id="paint0_linear_494_4941" x1="24.5475" y1="0" x2="24.5475" y2="48" gradientUnits="userSpaceOnUse">
<stop stop-color="#8197AD"/>
<stop offset="1" stop-color="#3B84CD"/>
</linearGradient>
<clipPath id="clip0_494_4941">
<rect width="20" height="20" fill="white" transform="translate(14.5475 14)"/>
</clipPath>
</defs>
</svg>
