<svg width="40" height="40" viewBox="0 0 40 40" fill="none" xmlns="http://www.w3.org/2000/svg">
<path d="M0 20C0 8.95431 8.95431 0 20 0C31.0457 0 40 8.95431 40 20C40 31.0457 31.0457 40 20 40C8.95431 40 0 31.0457 0 20Z" fill="#919EAB" fill-opacity="0.08"/>
<path d="M23.58 19.9999C23.58 21.9799 21.98 23.5799 20 23.5799C18.02 23.5799 16.42 21.9799 16.42 19.9999C16.42 18.0199 18.02 16.4199 20 16.4199C21.98 16.4199 23.58 18.0199 23.58 19.9999Z" stroke="#637381" stroke-width="1.2" stroke-linecap="round" stroke-linejoin="round"/>
<path d="M20 28.27C23.53 28.27 26.82 26.19 29.11 22.59C30.01 21.18 30.01 18.81 29.11 17.4C26.82 13.8 23.53 11.72 20 11.72C16.47 11.72 13.18 13.8 10.89 17.4C9.99003 18.81 9.99003 21.18 10.89 22.59C13.18 26.19 16.47 28.27 20 28.27Z" stroke="#637381" stroke-width="1.2" stroke-linecap="round" stroke-linejoin="round"/>
</svg>
