<svg width="415" height="238" viewBox="0 0 415 238" fill="none" xmlns="http://www.w3.org/2000/svg">
<rect width="415" height="238" rx="14.6018" fill="url(#paint0_linear_1642_5679)"/>
<mask id="mask0_1642_5679" style="mask-type:alpha" maskUnits="userSpaceOnUse" x="0" y="0" width="415" height="238">
<rect width="415" height="238" rx="12" fill="url(#paint1_linear_1642_5679)"/>
</mask>
<g mask="url(#mask0_1642_5679)">
<g opacity="0.2">
<path d="M783.828 265.45C783.828 334.18 746.06 396.443 684.918 441.541C623.775 486.639 539.285 514.548 445.938 514.548C352.591 514.548 268.1 486.639 206.958 441.541C145.815 396.443 108.047 334.18 108.047 265.45C108.047 196.721 145.815 134.458 206.958 89.3594C268.1 44.2614 352.591 16.3529 445.938 16.3529C539.285 16.3529 623.775 44.2614 684.918 89.3594C746.06 134.458 783.828 196.721 783.828 265.45Z" stroke="white" stroke-width="0.973451"/>
<path d="M738.08 265.45C738.08 324.862 705.433 378.689 652.569 417.681C599.706 456.672 526.652 480.804 445.938 480.804C365.224 480.804 292.17 456.672 239.307 417.681C186.443 378.689 153.795 324.862 153.795 265.45C153.795 206.038 186.443 152.211 239.307 113.219C292.17 74.2274 365.224 50.0959 445.938 50.0959C526.652 50.0959 599.706 74.2274 652.569 113.219C705.433 152.211 738.08 206.038 738.08 265.45Z" stroke="white" stroke-width="0.973451"/>
<path d="M686.021 265.45C686.021 314.258 659.2 358.486 615.757 390.529C572.314 422.573 512.275 442.406 445.937 442.406C379.598 442.406 319.559 422.573 276.116 390.529C232.673 358.486 205.852 314.258 205.852 265.45C205.852 216.641 232.673 172.413 276.116 140.37C319.559 108.327 379.598 88.4933 445.937 88.4933C512.275 88.4933 572.314 108.327 615.757 140.37C659.2 172.413 686.021 216.641 686.021 265.45Z" stroke="white" stroke-width="0.973451"/>
<path d="M633.964 265.45C633.964 303.655 612.97 338.284 578.947 363.378C544.925 388.473 497.9 404.009 445.937 404.009C393.974 404.009 346.949 388.473 312.927 363.378C278.905 338.284 257.911 303.655 257.911 265.45C257.911 227.245 278.905 192.616 312.927 167.522C346.949 142.427 393.974 126.891 445.937 126.891C497.9 126.891 544.925 142.427 578.947 167.522C612.97 192.616 633.964 227.245 633.964 265.45Z" stroke="white" stroke-width="0.973451"/>
<path d="M583.485 265.45C583.485 293.374 568.141 318.694 543.254 337.05C518.367 355.407 483.962 366.775 445.939 366.775C407.916 366.775 373.511 355.407 348.624 337.05C323.737 318.694 308.393 293.374 308.393 265.45C308.393 237.527 323.737 212.207 348.624 193.85C373.511 175.494 407.916 164.125 445.939 164.125C483.962 164.125 518.367 175.494 543.254 193.85C568.141 212.207 583.485 237.527 583.485 265.45Z" stroke="white" stroke-width="0.973451"/>
<path d="M537.735 265.45C537.735 284.056 527.512 300.94 510.903 313.19C494.295 325.441 471.328 333.032 445.937 333.032C420.547 333.032 397.579 325.441 380.971 313.19C364.362 300.94 354.139 284.056 354.139 265.45C354.139 246.845 364.362 229.961 380.971 217.711C397.579 205.46 420.547 197.869 445.937 197.869C471.328 197.869 494.295 205.46 510.903 217.711C527.512 229.961 537.735 246.845 537.735 265.45Z" stroke="white" stroke-width="0.973451"/>
<path d="M501.132 265.45C501.132 276.6 495.005 286.735 485.021 294.1C475.036 301.464 461.219 306.034 445.936 306.034C430.653 306.034 416.836 301.464 406.852 294.1C396.867 286.735 390.741 276.6 390.741 265.45C390.741 254.3 396.867 244.165 406.852 236.8C416.836 229.436 430.653 224.866 445.936 224.866C461.219 224.866 475.036 229.436 485.021 236.8C495.005 244.165 501.132 254.3 501.132 265.45Z" stroke="white" stroke-width="0.973451"/>
</g>
</g>
<defs>
<linearGradient id="paint0_linear_1642_5679" x1="207.5" y1="0" x2="207.5" y2="238" gradientUnits="userSpaceOnUse">
<stop stop-color="#2396F3"/>
<stop offset="1" stop-color="#14578D"/>
</linearGradient>
<linearGradient id="paint1_linear_1642_5679" x1="207.5" y1="0" x2="207.5" y2="238" gradientUnits="userSpaceOnUse">
<stop stop-color="#2396F3"/>
<stop offset="1" stop-color="#14578D"/>
</linearGradient>
</defs>
</svg>