<svg width="24" height="22" viewBox="0 0 24 22" fill="none" xmlns="http://www.w3.org/2000/svg">
	<path fill-rule="evenodd" clip-rule="evenodd" d="M7.15306 1H16.8467C20.097 1 22.732 3.635 22.732 6.8853V14.9344C22.732 18.1847 20.097 20.8197 16.8467 20.8197H7.15306C3.90276 20.8197 1.26776 18.1847 1.26776 14.9344V6.8853C1.26776 3.635 3.90276 1 7.15306 1Z" stroke="white" stroke-width="1.2" stroke-linecap="round" stroke-linejoin="round" />
	<mask id="path-2-inside-1_378_3269" fill="white">
		<path fill-rule="evenodd" clip-rule="evenodd" d="M18.4906 15.1361C18.5801 15.1361 18.6697 15.1708 18.7334 15.2337C18.7972 15.2966 18.8345 15.3856 18.8345 15.4751C18.8345 15.5647 18.7972 15.6537 18.7334 15.7166C18.6697 15.7795 18.5801 15.8155 18.4906 15.8142H9.26473C9.17516 15.8142 9.08564 15.7795 9.02186 15.7166C8.95807 15.6537 8.92084 15.5647 8.92084 15.4751C8.92084 15.3856 8.95807 15.2966 9.02186 15.2337C9.08564 15.1708 9.17516 15.1348 9.26473 15.1361H18.4906Z" />
	</mask>
	<path fill-rule="evenodd" clip-rule="evenodd" d="M18.4906 15.1361C18.5801 15.1361 18.6697 15.1708 18.7334 15.2337C18.7972 15.2966 18.8345 15.3856 18.8345 15.4751C18.8345 15.5647 18.7972 15.6537 18.7334 15.7166C18.6697 15.7795 18.5801 15.8155 18.4906 15.8142H9.26473C9.17516 15.8142 9.08564 15.7795 9.02186 15.7166C8.95807 15.6537 8.92084 15.5647 8.92084 15.4751C8.92084 15.3856 8.95807 15.2966 9.02186 15.2337C9.08564 15.1708 9.17516 15.1348 9.26473 15.1361H18.4906Z" fill="white" />
	<path d="M18.7334 15.2337L18.0313 15.9457L18.0315 15.9459L18.7334 15.2337ZM18.7334 15.7166L19.4354 16.4289L19.4356 16.4287L18.7334 15.7166ZM18.4906 15.8142L18.5046 14.8142H18.4906V15.8142ZM9.02186 15.7166L8.31973 16.4287L8.31992 16.4289L9.02186 15.7166ZM9.02186 15.2337L9.7238 15.9459L9.72399 15.9457L9.02186 15.2337ZM9.26473 15.1361L9.25072 16.1361H9.26473V15.1361ZM18.4906 16.1361C18.3324 16.1361 18.1651 16.0776 18.0313 15.9457L19.4356 14.5216C19.1742 14.264 18.8279 14.1361 18.4906 14.1361V16.1361ZM18.0315 15.9459C17.9045 15.8208 17.8345 15.6532 17.8345 15.4751H19.8345C19.8345 15.1179 19.6899 14.7723 19.4354 14.5215L18.0315 15.9459ZM17.8345 15.4751C17.8345 15.2971 17.9045 15.1296 18.0313 15.0046L19.4356 16.4287C19.6899 16.1779 19.8345 15.8324 19.8345 15.4751H17.8345ZM18.0315 15.0044C18.1583 14.8794 18.3266 14.8118 18.5046 14.8143L18.4766 16.8141C18.8336 16.8191 19.181 16.6795 19.4354 16.4289L18.0315 15.0044ZM18.4906 14.8142H9.26473V16.8142H18.4906V14.8142ZM9.26473 14.8142C9.42285 14.8142 9.59006 14.8726 9.7238 15.0044L8.31992 16.4289C8.58122 16.6864 8.92747 16.8142 9.26473 16.8142V14.8142ZM9.72399 15.0046C9.85078 15.1296 9.92084 15.2971 9.92084 15.4751H7.92084C7.92084 15.8324 8.06536 16.1779 8.31973 16.4287L9.72399 15.0046ZM9.92084 15.4751C9.92084 15.6532 9.85079 15.8208 9.7238 15.9459L8.31992 14.5215C8.06535 14.7723 7.92084 15.1179 7.92084 15.4751H9.92084ZM9.72399 15.9457C9.59716 16.0708 9.42872 16.1385 9.25072 16.136L9.27873 14.1362C8.9216 14.1312 8.57412 14.2708 8.31973 14.5216L9.72399 15.9457ZM9.26473 16.1361H18.4906V14.1361H9.26473V16.1361Z" fill="white" mask="url(#path-2-inside-1_378_3269)" />
	<path d="M5.53214 14.7984L5.53212 14.7984L5.53214 14.7984Z" fill="white" stroke="white" />
	<mask id="path-5-inside-2_378_3269" fill="white">
		<path fill-rule="evenodd" clip-rule="evenodd" d="M18.3365 10.0855C18.4261 10.0841 18.5156 10.1202 18.5794 10.1831C18.6432 10.246 18.6804 10.335 18.6804 10.4245C18.6804 10.5141 18.6432 10.6031 18.5794 10.666C18.5156 10.7289 18.4261 10.7649 18.3365 10.7636H9.1107C9.02114 10.765 8.93162 10.7289 8.86783 10.666C8.80405 10.6031 8.76682 10.5141 8.76682 10.4245C8.76682 10.335 8.80405 10.246 8.86783 10.1831C8.93162 10.1202 9.02114 10.0842 9.1107 10.0855H18.3365Z" />
	</mask>
	<path fill-rule="evenodd" clip-rule="evenodd" d="M18.3365 10.0855C18.4261 10.0841 18.5156 10.1202 18.5794 10.1831C18.6432 10.246 18.6804 10.335 18.6804 10.4245C18.6804 10.5141 18.6432 10.6031 18.5794 10.666C18.5156 10.7289 18.4261 10.7649 18.3365 10.7636H9.1107C9.02114 10.765 8.93162 10.7289 8.86783 10.666C8.80405 10.6031 8.76682 10.5141 8.76682 10.4245C8.76682 10.335 8.80405 10.246 8.86783 10.1831C8.93162 10.1202 9.02114 10.0842 9.1107 10.0855H18.3365Z" fill="white" />
	<path d="M18.3365 10.0855V11.0855H18.3441L18.3517 11.0854L18.3365 10.0855ZM18.3365 10.7636L18.3507 9.76371L18.3436 9.76361H18.3365V10.7636ZM9.1107 10.7636V9.76361H9.10313L9.09556 9.76372L9.1107 10.7636ZM9.1107 10.0855L9.09655 11.0854L9.10363 11.0855H9.1107V10.0855ZM18.3517 11.0854C18.1722 11.0881 18.0036 11.0197 17.8773 10.8952L19.2815 9.471C19.0276 9.22069 18.68 9.08017 18.3214 9.0856L18.3517 11.0854ZM17.8773 10.8952C17.7505 10.7701 17.6804 10.6027 17.6804 10.4245H19.6804C19.6804 10.0673 19.5359 9.7218 19.2815 9.471L17.8773 10.8952ZM17.6804 10.4245C17.6804 10.2464 17.7505 10.079 17.8773 9.95393L19.2815 11.3781C19.5359 11.1273 19.6804 10.7818 19.6804 10.4245H17.6804ZM17.8773 9.95393C18.0041 9.8289 18.1726 9.76119 18.3507 9.76371L18.3224 11.7635C18.6796 11.7686 19.0271 11.6289 19.2815 11.3781L17.8773 9.95393ZM18.3365 9.76361H9.1107V11.7636H18.3365V9.76361ZM9.09556 9.76372C9.27504 9.761 9.44362 9.82939 9.56993 9.95393L8.16574 11.3781C8.41962 11.6284 8.76723 11.7689 9.12584 11.7635L9.09556 9.76372ZM9.56993 9.95393C9.69674 10.079 9.76682 10.2465 9.76682 10.4245H7.76682C7.76682 10.7818 7.91136 11.1273 8.16574 11.3781L9.56993 9.95393ZM9.76682 10.4245C9.76682 10.6026 9.69674 10.7701 9.56993 10.8952L8.16574 9.471C7.91136 9.72181 7.76682 10.0673 7.76682 10.4245H9.76682ZM9.56993 10.8952C9.44312 11.0202 9.27465 11.0879 9.09655 11.0854L9.12486 9.08559C8.76763 9.08053 8.42012 9.22019 8.16574 9.471L9.56993 10.8952ZM9.1107 11.0855H18.3365V9.08549H9.1107V11.0855Z" fill="white" mask="url(#path-5-inside-2_378_3269)" />
	<path d="M5.64051 11.7893L5.73665 11.6785L5.70785 11.5775L5.53667 11.6264L5.70784 11.5775L5.49673 10.8374L5.37903 10.4247L5.37901 10.4246L5.37814 10.4216L5.37657 10.4161L5.37664 10.4161C5.37714 10.4179 5.37766 10.4198 5.37821 10.4216C5.37851 10.4226 5.37883 10.4236 5.37915 10.4246C5.37916 10.4246 5.37916 10.4246 5.37917 10.4247C5.38541 10.444 5.39438 10.4601 5.40447 10.4732C5.41601 10.4882 5.4317 10.5027 5.45262 10.5146C5.45263 10.5146 5.45264 10.5146 5.45265 10.5146C5.45266 10.5146 5.45266 10.5146 5.45267 10.5146C5.45268 10.5146 5.45268 10.5146 5.45269 10.5146C5.47152 10.5253 5.49177 10.5319 5.51299 10.5345L5.53135 10.3813L5.53135 10.3812L5.53211 10.3749L5.53208 10.3748L5.53207 10.3747L5.53205 10.3747L5.53202 10.3747L5.53189 10.3747L5.1948 10.3404L5.53194 10.3747L5.53206 10.3747L5.53205 10.3747L5.78967 11.8644L5.73665 11.6785L5.64051 11.7893ZM5.64051 11.7893L5.64045 11.7893L5.64051 11.7893ZM5.81641 11.8692C5.82528 11.8704 5.8342 11.8713 5.84314 11.8718L5.94466 11.707M5.81641 11.8692L6.15142 11.7111L5.99966 11.6177L5.94466 11.707M5.81641 11.8692L5.86269 11.5334M5.81641 11.8692L5.86272 11.5334L5.86274 11.5334M5.94466 11.707L5.86274 11.5334M5.94466 11.707L5.86274 11.5334M7.64507 9.20368C7.64744 9.14439 7.63405 9.08449 7.60643 9.03196L7.59243 9.37162C7.62427 9.32153 7.64263 9.26298 7.64507 9.20368Z" fill="white" stroke="white" />
	<mask id="path-8-inside-3_378_3269" fill="white">
		<path fill-rule="evenodd" clip-rule="evenodd" d="M18.4906 5.35105C18.5801 5.34969 18.6697 5.38576 18.7334 5.44865C18.7972 5.51153 18.8345 5.60054 18.8345 5.69011C18.8345 5.77968 18.7972 5.86869 18.7334 5.93158C18.6697 5.99446 18.5801 6.03044 18.4906 6.02917H9.26473C9.17516 6.03053 9.08564 5.99446 9.02186 5.93158C8.95807 5.86869 8.92084 5.77968 8.92084 5.69011C8.92084 5.60054 8.95807 5.51153 9.02186 5.44865C9.08564 5.38576 9.17516 5.34978 9.26473 5.35105H18.4906Z" />
	</mask>
	<path fill-rule="evenodd" clip-rule="evenodd" d="M18.4906 5.35105C18.5801 5.34969 18.6697 5.38576 18.7334 5.44865C18.7972 5.51153 18.8345 5.60054 18.8345 5.69011C18.8345 5.77968 18.7972 5.86869 18.7334 5.93158C18.6697 5.99446 18.5801 6.03044 18.4906 6.02917H9.26473C9.17516 6.03053 9.08564 5.99446 9.02186 5.93158C8.95807 5.86869 8.92084 5.77968 8.92084 5.69011C8.92084 5.60054 8.95807 5.51153 9.02186 5.44865C9.08564 5.38576 9.17516 5.34978 9.26473 5.35105H18.4906Z" fill="white" />
	<path d="M18.4906 5.35105V6.35105H18.4981L18.5057 6.35094L18.4906 5.35105ZM18.4906 6.02917L18.5047 5.02927L18.4976 5.02917H18.4906V6.02917ZM9.26473 6.02917V5.02917H9.25716L9.24959 5.02929L9.26473 6.02917ZM9.26473 5.35105L9.25057 6.35095L9.25765 6.35105H9.26473V5.35105ZM18.5057 6.35094C18.3262 6.35365 18.1576 6.28526 18.0313 6.16073L19.4355 4.73656C19.1817 4.48625 18.834 4.34573 18.4754 4.35116L18.5057 6.35094ZM18.0313 6.16073C17.9045 6.0357 17.8345 5.86822 17.8345 5.69011H19.8345C19.8345 5.33286 19.6899 4.98737 19.4355 4.73656L18.0313 6.16073ZM17.8345 5.69011C17.8345 5.51201 17.9045 5.34452 18.0313 5.21949L19.4355 6.64366C19.6899 6.39285 19.8345 6.04736 19.8345 5.69011H17.8345ZM18.0313 5.21949C18.1581 5.09447 18.3266 5.02675 18.5047 5.02927L18.4764 7.02907C18.8337 7.03413 19.1812 6.89446 19.4355 6.64366L18.0313 5.21949ZM18.4906 5.02917H9.26473V7.02917H18.4906V5.02917ZM9.24959 5.02929C9.42906 5.02657 9.59764 5.09495 9.72395 5.21949L8.31976 6.64366C8.57364 6.89398 8.92126 7.03449 9.27987 7.02906L9.24959 5.02929ZM9.72395 5.21949C9.85076 5.34452 9.92084 5.51201 9.92084 5.69011H7.92084C7.92084 6.04735 8.06538 6.39285 8.31976 6.64366L9.72395 5.21949ZM9.92084 5.69011C9.92084 5.86821 9.85076 6.0357 9.72395 6.16073L8.31976 4.73656C8.06538 4.98737 7.92084 5.33287 7.92084 5.69011H9.92084ZM9.72395 6.16073C9.59714 6.28576 9.42867 6.35347 9.25057 6.35095L9.27888 4.35115C8.92165 4.34609 8.57414 4.48575 8.31976 4.73656L9.72395 6.16073ZM9.26473 6.35105H18.4906V4.35105H9.26473V6.35105Z" fill="white" mask="url(#path-8-inside-3_378_3269)" />
	<mask id="path-10-inside-4_378_3269" fill="white">
		<path fill-rule="evenodd" clip-rule="evenodd" d="M7.46102 4.36456C7.37397 4.36436 7.28735 4.39926 7.22473 4.45972L6.49554 5.14386L5.76635 4.45972C5.70179 4.39806 5.61211 4.36353 5.52287 4.36597C5.43364 4.36834 5.34597 4.40779 5.28488 4.47288C5.22379 4.53797 5.19005 4.62795 5.19327 4.71716C5.19649 4.80637 5.23663 4.8937 5.30226 4.95422L5.99998 5.60881L5.30226 6.26352C5.23663 6.32404 5.19649 6.41135 5.19327 6.50056C5.19004 6.58977 5.22379 6.67975 5.28488 6.74484C5.34597 6.80993 5.43364 6.84931 5.52287 6.85175C5.61211 6.85412 5.70179 6.81964 5.76635 6.758L6.49554 6.07386L7.22473 6.758C7.28929 6.81965 7.37897 6.85419 7.46821 6.85175C7.55744 6.84937 7.64511 6.80993 7.70619 6.74484C7.76728 6.67975 7.80103 6.58977 7.79781 6.50056C7.79442 6.41135 7.75444 6.32404 7.68882 6.26352L6.9911 5.60881L7.68882 4.95422C7.73893 4.90851 7.77483 4.84743 7.79039 4.78142C7.80595 4.7154 7.80107 4.64471 7.77665 4.58144C7.75221 4.51818 7.70829 4.4626 7.65239 4.42419C7.59649 4.38577 7.52884 4.3647 7.46102 4.36456Z" />
	</mask>
	<path fill-rule="evenodd" clip-rule="evenodd" d="M7.46102 4.36456C7.37397 4.36436 7.28735 4.39926 7.22473 4.45972L6.49554 5.14386L5.76635 4.45972C5.70179 4.39806 5.61211 4.36353 5.52287 4.36597C5.43364 4.36834 5.34597 4.40779 5.28488 4.47288C5.22379 4.53797 5.19005 4.62795 5.19327 4.71716C5.19649 4.80637 5.23663 4.8937 5.30226 4.95422L5.99998 5.60881L5.30226 6.26352C5.23663 6.32404 5.19649 6.41135 5.19327 6.50056C5.19004 6.58977 5.22379 6.67975 5.28488 6.74484C5.34597 6.80993 5.43364 6.84931 5.52287 6.85175C5.61211 6.85412 5.70179 6.81964 5.76635 6.758L6.49554 6.07386L7.22473 6.758C7.28929 6.81965 7.37897 6.85419 7.46821 6.85175C7.55744 6.84937 7.64511 6.80993 7.70619 6.74484C7.76728 6.67975 7.80103 6.58977 7.79781 6.50056C7.79442 6.41135 7.75444 6.32404 7.68882 6.26352L6.9911 5.60881L7.68882 4.95422C7.73893 4.90851 7.77483 4.84743 7.79039 4.78142C7.80595 4.7154 7.80107 4.64471 7.77665 4.58144C7.75221 4.51818 7.70829 4.4626 7.65239 4.42419C7.59649 4.38577 7.52884 4.3647 7.46102 4.36456Z" fill="white" />
	<path d="M7.46102 4.36456L7.45868 5.36456L7.45897 5.36456L7.46102 4.36456ZM7.22473 4.45972L7.90895 5.18899L7.91418 5.18408L7.91934 5.1791L7.22473 4.45972ZM6.49554 5.14386L5.81132 5.87314L6.49554 6.51509L7.17976 5.87314L6.49554 5.14386ZM5.76635 4.45972L5.07566 5.18292L5.08213 5.18899L5.76635 4.45972ZM5.52287 4.36597L5.54946 5.36562L5.55022 5.3656L5.52287 4.36597ZM5.28488 4.47288L4.55572 3.78854L4.5557 3.78856L5.28488 4.47288ZM5.19327 4.71716L4.19392 4.7532L4.19392 4.75324L5.19327 4.71716ZM5.30226 4.95422L5.98649 4.2249L5.9802 4.2191L5.30226 4.95422ZM5.99998 5.60881L6.68425 6.33803L7.46145 5.60874L6.68419 4.87952L5.99998 5.60881ZM5.30226 6.26352L5.98023 6.99866L5.98653 6.99275L5.30226 6.26352ZM5.28488 6.74484L4.5557 7.42916L4.55572 7.42918L5.28488 6.74484ZM5.52287 6.85175L5.49552 7.85137L5.49628 7.85139L5.52287 6.85175ZM5.76635 6.758L5.0821 6.0287L5.07578 6.03473L5.76635 6.758ZM6.49554 6.07386L7.17976 5.34458L6.49554 4.70263L5.81132 5.34458L6.49554 6.07386ZM7.22473 6.758L7.91542 6.0348L7.90895 6.02873L7.22473 6.758ZM7.46821 6.85175L7.44162 5.8521L7.44086 5.85212L7.46821 6.85175ZM7.70619 6.74484L8.43536 7.42918L8.43537 7.42916L7.70619 6.74484ZM7.79781 6.50056L8.79716 6.46451L8.79709 6.46258L7.79781 6.50056ZM7.68882 6.26352L7.00452 6.99277L7.01087 6.99863L7.68882 6.26352ZM6.9911 5.60881L6.30689 4.87952L5.52962 5.60874L6.30682 6.33803L6.9911 5.60881ZM7.68882 4.95422L7.01492 4.21526L7.00462 4.22493L7.68882 4.95422ZM7.79039 4.78142L6.81707 4.55196L6.81703 4.55211L7.79039 4.78142ZM7.77665 4.58144L8.70961 4.22146L8.70944 4.22101L7.77665 4.58144ZM7.65239 4.42419L7.08604 5.24835L7.08606 5.24836L7.65239 4.42419ZM7.46335 3.36457C7.11621 3.36376 6.77965 3.4994 6.53012 3.74033L7.91934 5.1791C7.79505 5.29911 7.63174 5.36497 7.45868 5.36456L7.46335 3.36457ZM6.54051 3.73044L5.81132 4.41459L7.17976 5.87314L7.90895 5.18899L6.54051 3.73044ZM7.17976 4.41459L6.45057 3.73044L5.08213 5.18899L5.81132 5.87314L7.17976 4.41459ZM6.45701 3.73654C6.19958 3.49069 5.85141 3.35661 5.49552 3.36635L5.55022 5.3656C5.3728 5.37045 5.204 5.30544 5.07568 5.18289L6.45701 3.73654ZM5.49628 3.36632C5.13939 3.37582 4.799 3.52933 4.55572 3.78854L6.01404 5.15722C5.89294 5.28625 5.72788 5.36087 5.54946 5.36562L5.49628 3.36632ZM4.5557 3.78856C4.3121 4.04812 4.18108 4.39744 4.19392 4.7532L6.19262 4.68111C6.19901 4.85846 6.13549 5.02782 6.01406 5.1572L4.5557 3.78856ZM4.19392 4.75324C4.20676 5.10897 4.3626 5.44796 4.62431 5.68933L5.9802 4.2191C6.11067 4.33943 6.18621 4.50377 6.19261 4.68108L4.19392 4.75324ZM4.61805 5.6835L5.31577 6.3381L6.68419 4.87952L5.98646 4.22493L4.61805 5.6835ZM5.3157 4.87958L4.61798 5.5343L5.98653 6.99275L6.68425 6.33803L5.3157 4.87958ZM4.62431 5.52841C4.36265 5.76973 4.20676 6.10868 4.19392 6.46448L6.19261 6.53664C6.18621 6.71402 6.11062 6.87836 5.9802 6.99863L4.62431 5.52841ZM4.19392 6.46448C4.18107 6.8203 4.31212 7.16961 4.5557 7.42916L6.01406 6.06052C6.13547 6.18988 6.19902 6.35924 6.19261 6.53664L4.19392 6.46448ZM4.55572 7.42918C4.79937 7.68878 5.1397 7.84164 5.49552 7.85137L5.55022 5.85212C5.72757 5.85697 5.89258 5.93107 6.01404 6.0605L4.55572 7.42918ZM5.49628 7.85139C5.85123 7.86083 6.19922 7.72731 6.45691 7.48127L5.07578 6.03473C5.20436 5.91196 5.37299 5.84741 5.54946 5.8521L5.49628 7.85139ZM6.45057 7.48728L7.17976 6.80313L5.81132 5.34458L5.08213 6.02872L6.45057 7.48728ZM5.81132 6.80313L6.54051 7.48727L7.90895 6.02873L7.17976 5.34458L5.81132 6.80313ZM6.53407 7.48118C6.7915 7.72703 7.13967 7.86111 7.49555 7.85137L7.44086 5.85212C7.61827 5.84727 7.78708 5.91228 7.91539 6.03482L6.53407 7.48118ZM7.4948 7.85139C7.85168 7.8419 8.19208 7.68839 8.43536 7.42918L6.97703 6.0605C7.09813 5.93147 7.2632 5.85685 7.44162 5.8521L7.4948 7.85139ZM8.43537 7.42916C8.67897 7.16959 8.80999 6.82028 8.79716 6.46451L6.79846 6.5366C6.79207 6.35926 6.85559 6.1899 6.97702 6.06052L8.43537 7.42916ZM8.79709 6.46258C8.78367 6.10945 8.62941 5.77063 8.36677 5.52841L7.01087 6.99863C6.87948 6.87745 6.80517 6.71324 6.79853 6.53854L8.79709 6.46258ZM8.3731 5.5343L7.67537 4.87958L6.30682 6.33803L7.00455 6.99275L8.3731 5.5343ZM7.6753 6.3381L8.37303 5.68351L7.00462 4.22493L6.30689 4.87952L7.6753 6.3381ZM8.36266 5.69309C8.56169 5.51158 8.70198 5.27288 8.76374 5.01072L6.81703 4.55211C6.84769 4.42199 6.91618 4.30545 7.01498 4.21534L8.36266 5.69309ZM8.76371 5.01087C8.82559 4.74839 8.80639 4.47227 8.70961 4.22146L6.8437 4.94143C6.79575 4.81716 6.78631 4.68241 6.81707 4.55196L8.76371 5.01087ZM8.70944 4.22101C8.61237 3.96981 8.44075 3.75257 8.21872 3.60001L7.08606 5.24836C6.97584 5.17263 6.89204 5.06655 6.84387 4.94188L8.70944 4.22101ZM8.21875 3.60002C7.99667 3.44742 7.73231 3.36512 7.46307 3.36457L7.45897 5.36456C7.32538 5.36429 7.19632 5.32413 7.08604 5.24835L8.21875 3.60002Z" fill="white" mask="url(#path-10-inside-4_378_3269)" />
</svg>
